<mxfile host="Electron" agent="Mozilla/5.0 (X11; Linux x86_64) AppleWebKit/537.36 (KHTML, like Gecko) draw.io/28.0.6 Chrome/138.0.7204.185 Electron/37.2.6 Safari/537.36" version="28.0.6">
  <diagram name="Page-1" id="jcubCy6yK_9bS0pW1DMM">
    <mxGraphModel dx="1071" dy="1345" grid="1" gridSize="10" guides="1" tooltips="1" connect="1" arrows="1" fold="1" page="1" pageScale="1" pageWidth="850" pageHeight="1100" math="0" shadow="0">
      <root>
        <mxCell id="0" />
        <mxCell id="1" parent="0" />
        <mxCell id="Qew3UjFXyUt_gFs2Ibvv-20" value="" style="rounded=0;whiteSpace=wrap;html=1;" vertex="1" parent="1">
          <mxGeometry x="540" y="230" width="180" height="320" as="geometry" />
        </mxCell>
        <mxCell id="Qew3UjFXyUt_gFs2Ibvv-2" value="" style="rounded=0;whiteSpace=wrap;html=1;" vertex="1" parent="1">
          <mxGeometry x="90" y="230" width="410" height="320" as="geometry" />
        </mxCell>
        <mxCell id="Qew3UjFXyUt_gFs2Ibvv-3" value="Unity" style="text;html=1;align=center;verticalAlign=middle;resizable=0;points=[];autosize=1;strokeColor=none;fillColor=none;" vertex="1" parent="1">
          <mxGeometry x="270" y="233" width="50" height="30" as="geometry" />
        </mxCell>
        <mxCell id="Qew3UjFXyUt_gFs2Ibvv-13" value="" style="group" vertex="1" connectable="0" parent="1">
          <mxGeometry x="140" y="280" width="120" height="140" as="geometry" />
        </mxCell>
        <mxCell id="Qew3UjFXyUt_gFs2Ibvv-6" value="" style="rounded=1;whiteSpace=wrap;html=1;" vertex="1" parent="Qew3UjFXyUt_gFs2Ibvv-13">
          <mxGeometry width="120" height="140" as="geometry" />
        </mxCell>
        <mxCell id="Qew3UjFXyUt_gFs2Ibvv-8" value="Image" style="text;html=1;align=center;verticalAlign=middle;resizable=0;points=[];autosize=1;strokeColor=none;fillColor=none;" vertex="1" parent="Qew3UjFXyUt_gFs2Ibvv-13">
          <mxGeometry x="30" y="2" width="60" height="30" as="geometry" />
        </mxCell>
        <mxCell id="Qew3UjFXyUt_gFs2Ibvv-11" value="Border Radius" style="rounded=1;whiteSpace=wrap;html=1;" vertex="1" parent="Qew3UjFXyUt_gFs2Ibvv-13">
          <mxGeometry x="8" y="57" width="85" height="18" as="geometry" />
        </mxCell>
        <mxCell id="Qew3UjFXyUt_gFs2Ibvv-10" value="Color" style="rounded=1;whiteSpace=wrap;html=1;" vertex="1" parent="Qew3UjFXyUt_gFs2Ibvv-13">
          <mxGeometry x="66" y="32" width="45" height="18" as="geometry" />
        </mxCell>
        <mxCell id="Qew3UjFXyUt_gFs2Ibvv-7" value="Shadow" style="rounded=1;whiteSpace=wrap;html=1;" vertex="1" parent="1">
          <mxGeometry x="148" y="312" width="50" height="18" as="geometry" />
        </mxCell>
        <mxCell id="Qew3UjFXyUt_gFs2Ibvv-12" value="" style="group" vertex="1" connectable="0" parent="1">
          <mxGeometry x="340" y="280" width="120" height="140" as="geometry" />
        </mxCell>
        <mxCell id="Qew3UjFXyUt_gFs2Ibvv-5" value="" style="rounded=1;whiteSpace=wrap;html=1;" vertex="1" parent="Qew3UjFXyUt_gFs2Ibvv-12">
          <mxGeometry width="120" height="140" as="geometry" />
        </mxCell>
        <mxCell id="Qew3UjFXyUt_gFs2Ibvv-9" value="TMP" style="text;html=1;align=center;verticalAlign=middle;resizable=0;points=[];autosize=1;strokeColor=none;fillColor=none;" vertex="1" parent="Qew3UjFXyUt_gFs2Ibvv-12">
          <mxGeometry x="35" y="2" width="50" height="30" as="geometry" />
        </mxCell>
        <mxCell id="Qew3UjFXyUt_gFs2Ibvv-14" value="Size" style="rounded=1;whiteSpace=wrap;html=1;" vertex="1" parent="Qew3UjFXyUt_gFs2Ibvv-12">
          <mxGeometry x="10" y="32" width="40" height="18" as="geometry" />
        </mxCell>
        <mxCell id="Qew3UjFXyUt_gFs2Ibvv-15" value="Color" style="rounded=1;whiteSpace=wrap;html=1;" vertex="1" parent="Qew3UjFXyUt_gFs2Ibvv-12">
          <mxGeometry x="56" y="32" width="50" height="18" as="geometry" />
        </mxCell>
        <mxCell id="Qew3UjFXyUt_gFs2Ibvv-17" value="Family" style="rounded=1;whiteSpace=wrap;html=1;" vertex="1" parent="Qew3UjFXyUt_gFs2Ibvv-12">
          <mxGeometry x="10" y="57" width="70" height="18" as="geometry" />
        </mxCell>
        <mxCell id="Qew3UjFXyUt_gFs2Ibvv-18" value="Weight/Variant" style="rounded=1;whiteSpace=wrap;html=1;" vertex="1" parent="Qew3UjFXyUt_gFs2Ibvv-12">
          <mxGeometry x="10" y="81" width="90" height="18" as="geometry" />
        </mxCell>
        <mxCell id="Qew3UjFXyUt_gFs2Ibvv-19" value="Theme" style="text;html=1;align=center;verticalAlign=middle;whiteSpace=wrap;rounded=0;fontSize=16;" vertex="1" parent="1">
          <mxGeometry x="546" y="233" width="60" height="30" as="geometry" />
        </mxCell>
        <mxCell id="Qew3UjFXyUt_gFs2Ibvv-21" value="" style="group" vertex="1" connectable="0" parent="1">
          <mxGeometry x="550" y="270" width="160" height="70" as="geometry" />
        </mxCell>
        <mxCell id="Qew3UjFXyUt_gFs2Ibvv-22" value="" style="rounded=1;whiteSpace=wrap;html=1;" vertex="1" parent="Qew3UjFXyUt_gFs2Ibvv-21">
          <mxGeometry width="160" height="70" as="geometry" />
        </mxCell>
        <mxCell id="Qew3UjFXyUt_gFs2Ibvv-25" value="Color" style="rounded=1;whiteSpace=wrap;html=1;movable=1;resizable=1;rotatable=1;deletable=1;editable=1;locked=0;connectable=1;" vertex="1" parent="Qew3UjFXyUt_gFs2Ibvv-21">
          <mxGeometry x="16" y="37" width="40" height="18" as="geometry" />
        </mxCell>
        <mxCell id="Qew3UjFXyUt_gFs2Ibvv-36" value="Palette" style="text;html=1;align=left;verticalAlign=middle;whiteSpace=wrap;rounded=0;fontStyle=1" vertex="1" parent="Qew3UjFXyUt_gFs2Ibvv-21">
          <mxGeometry x="13" y="4" width="60" height="30" as="geometry" />
        </mxCell>
        <mxCell id="Qew3UjFXyUt_gFs2Ibvv-37" value="" style="group;imageAspect=1;" vertex="1" connectable="0" parent="1">
          <mxGeometry x="550" y="351" width="160" height="180" as="geometry" />
        </mxCell>
        <mxCell id="Qew3UjFXyUt_gFs2Ibvv-38" value="" style="rounded=1;whiteSpace=wrap;html=1;imageAspect=1;arcSize=8;" vertex="1" parent="Qew3UjFXyUt_gFs2Ibvv-37">
          <mxGeometry width="160" height="120" as="geometry" />
        </mxCell>
        <mxCell id="Qew3UjFXyUt_gFs2Ibvv-41" value="Typography" style="text;html=1;align=left;verticalAlign=middle;whiteSpace=wrap;rounded=0;fontStyle=1;imageAspect=1;movable=0;resizable=0;rotatable=0;deletable=0;editable=0;locked=1;connectable=0;" vertex="1" parent="Qew3UjFXyUt_gFs2Ibvv-37">
          <mxGeometry x="13" y="4" width="77" height="30" as="geometry" />
        </mxCell>
        <mxCell id="Qew3UjFXyUt_gFs2Ibvv-46" value="" style="group;movable=1;resizable=1;rotatable=1;deletable=1;editable=1;locked=0;connectable=1;" vertex="1" connectable="0" parent="Qew3UjFXyUt_gFs2Ibvv-37">
          <mxGeometry x="16" y="37" width="116" height="66" as="geometry" />
        </mxCell>
        <mxCell id="Qew3UjFXyUt_gFs2Ibvv-39" value="Size" style="rounded=1;whiteSpace=wrap;html=1;movable=1;resizable=1;rotatable=1;deletable=1;editable=1;locked=0;connectable=1;imageAspect=1;" vertex="1" parent="Qew3UjFXyUt_gFs2Ibvv-46">
          <mxGeometry width="34" height="18" as="geometry" />
        </mxCell>
        <mxCell id="Qew3UjFXyUt_gFs2Ibvv-44" value="Variant" style="rounded=1;whiteSpace=wrap;html=1;movable=1;resizable=1;rotatable=1;deletable=1;editable=1;locked=0;connectable=1;imageAspect=1;" vertex="1" parent="Qew3UjFXyUt_gFs2Ibvv-46">
          <mxGeometry y="24" width="44" height="18" as="geometry" />
        </mxCell>
        <mxCell id="Qew3UjFXyUt_gFs2Ibvv-42" value="Family" style="rounded=1;whiteSpace=wrap;html=1;movable=1;resizable=1;rotatable=1;deletable=1;editable=1;locked=0;connectable=1;imageAspect=1;" vertex="1" parent="Qew3UjFXyUt_gFs2Ibvv-37">
          <mxGeometry x="56" y="37" width="44" height="18" as="geometry" />
        </mxCell>
        <mxCell id="Qew3UjFXyUt_gFs2Ibvv-47" value="Option&amp;lt;T&amp;gt;" style="swimlane;fontStyle=0;childLayout=stackLayout;horizontal=1;startSize=30;horizontalStack=0;resizeParent=1;resizeParentMax=0;resizeLast=0;collapsible=1;marginBottom=0;whiteSpace=wrap;html=1;" vertex="1" parent="1">
          <mxGeometry x="520" y="720" width="140" height="90" as="geometry" />
        </mxCell>
        <mxCell id="Qew3UjFXyUt_gFs2Ibvv-48" value="Key: String" style="text;strokeColor=none;fillColor=none;align=left;verticalAlign=middle;spacingLeft=4;spacingRight=4;overflow=hidden;points=[[0,0.5],[1,0.5]];portConstraint=eastwest;rotatable=0;whiteSpace=wrap;html=1;" vertex="1" parent="Qew3UjFXyUt_gFs2Ibvv-47">
          <mxGeometry y="30" width="140" height="30" as="geometry" />
        </mxCell>
        <mxCell id="Qew3UjFXyUt_gFs2Ibvv-50" value="Value: T" style="text;strokeColor=none;fillColor=none;align=left;verticalAlign=middle;spacingLeft=4;spacingRight=4;overflow=hidden;points=[[0,0.5],[1,0.5]];portConstraint=eastwest;rotatable=0;whiteSpace=wrap;html=1;" vertex="1" parent="Qew3UjFXyUt_gFs2Ibvv-47">
          <mxGeometry y="60" width="140" height="30" as="geometry" />
        </mxCell>
        <mxCell id="Qew3UjFXyUt_gFs2Ibvv-60" style="edgeStyle=orthogonalEdgeStyle;rounded=0;orthogonalLoop=1;jettySize=auto;html=1;endArrow=ERzeroToMany;endFill=0;startArrow=oval;startFill=0;" edge="1" parent="1" source="Qew3UjFXyUt_gFs2Ibvv-51" target="Qew3UjFXyUt_gFs2Ibvv-55">
          <mxGeometry relative="1" as="geometry" />
        </mxCell>
        <mxCell id="Qew3UjFXyUt_gFs2Ibvv-51" value="Theme" style="swimlane;fontStyle=0;childLayout=stackLayout;horizontal=1;startSize=30;horizontalStack=0;resizeParent=1;resizeParentMax=0;resizeLast=0;collapsible=1;marginBottom=0;whiteSpace=wrap;html=1;" vertex="1" parent="1">
          <mxGeometry x="240" y="780" width="150" height="90" as="geometry" />
        </mxCell>
        <mxCell id="Qew3UjFXyUt_gFs2Ibvv-52" value="Palette: Option&amp;lt;T&amp;gt;[]" style="text;strokeColor=none;fillColor=none;align=left;verticalAlign=middle;spacingLeft=4;spacingRight=4;overflow=hidden;points=[[0,0.5],[1,0.5]];portConstraint=eastwest;rotatable=0;whiteSpace=wrap;html=1;" vertex="1" parent="Qew3UjFXyUt_gFs2Ibvv-51">
          <mxGeometry y="30" width="150" height="30" as="geometry" />
        </mxCell>
        <mxCell id="Qew3UjFXyUt_gFs2Ibvv-53" value="Typography: Option&amp;lt;T&amp;gt;[]" style="text;strokeColor=none;fillColor=none;align=left;verticalAlign=middle;spacingLeft=4;spacingRight=4;overflow=hidden;points=[[0,0.5],[1,0.5]];portConstraint=eastwest;rotatable=0;whiteSpace=wrap;html=1;" vertex="1" parent="Qew3UjFXyUt_gFs2Ibvv-51">
          <mxGeometry y="60" width="150" height="30" as="geometry" />
        </mxCell>
        <mxCell id="Qew3UjFXyUt_gFs2Ibvv-54" value="Generate Enum from option Keys" style="ellipse;shape=cloud;whiteSpace=wrap;html=1;" vertex="1" parent="1">
          <mxGeometry x="640" y="610" width="150" height="110" as="geometry" />
        </mxCell>
        <mxCell id="Qew3UjFXyUt_gFs2Ibvv-55" value="Typography" style="swimlane;fontStyle=0;childLayout=stackLayout;horizontal=1;startSize=30;horizontalStack=0;resizeParent=1;resizeParentMax=0;resizeLast=0;collapsible=1;marginBottom=0;whiteSpace=wrap;html=1;" vertex="1" parent="1">
          <mxGeometry x="520" y="840" width="140" height="120" as="geometry" />
        </mxCell>
        <mxCell id="Qew3UjFXyUt_gFs2Ibvv-56" value="Size: Float" style="text;strokeColor=none;fillColor=none;align=left;verticalAlign=middle;spacingLeft=4;spacingRight=4;overflow=hidden;points=[[0,0.5],[1,0.5]];portConstraint=eastwest;rotatable=0;whiteSpace=wrap;html=1;" vertex="1" parent="Qew3UjFXyUt_gFs2Ibvv-55">
          <mxGeometry y="30" width="140" height="30" as="geometry" />
        </mxCell>
        <mxCell id="Qew3UjFXyUt_gFs2Ibvv-57" value="Family: TMP_Asset" style="text;strokeColor=none;fillColor=none;align=left;verticalAlign=middle;spacingLeft=4;spacingRight=4;overflow=hidden;points=[[0,0.5],[1,0.5]];portConstraint=eastwest;rotatable=0;whiteSpace=wrap;html=1;" vertex="1" parent="Qew3UjFXyUt_gFs2Ibvv-55">
          <mxGeometry y="60" width="140" height="30" as="geometry" />
        </mxCell>
        <mxCell id="Qew3UjFXyUt_gFs2Ibvv-58" value="Variant: Enum" style="text;strokeColor=none;fillColor=none;align=left;verticalAlign=middle;spacingLeft=4;spacingRight=4;overflow=hidden;points=[[0,0.5],[1,0.5]];portConstraint=eastwest;rotatable=0;whiteSpace=wrap;html=1;" vertex="1" parent="Qew3UjFXyUt_gFs2Ibvv-55">
          <mxGeometry y="90" width="140" height="30" as="geometry" />
        </mxCell>
        <mxCell id="Qew3UjFXyUt_gFs2Ibvv-59" style="edgeStyle=orthogonalEdgeStyle;rounded=0;orthogonalLoop=1;jettySize=auto;html=1;endArrow=ERzeroToMany;endFill=0;startArrow=oval;startFill=0;" edge="1" parent="1" source="Qew3UjFXyUt_gFs2Ibvv-52" target="Qew3UjFXyUt_gFs2Ibvv-47">
          <mxGeometry relative="1" as="geometry" />
        </mxCell>
      </root>
    </mxGraphModel>
  </diagram>
</mxfile>
